<svg xmlns="http://www.w3.org/2000/svg" viewBox="0 0 130 90">
  <style>
      .border{stroke: green;
        fill:  transparent;
        stroke-width: 1;}
      .well{stroke: green;
        fill: transparent;
        stroke-width: 0.5;}
      .small{fill:green;text-anchor:middle;
        font-size:4px;}
      .big{fill:green;text-anchor:middle;
        font-size:5px;}
  </style>
      <polyline class="border" points="1 87, 1 3, 125 3, 129 7, 129 87, 0.5 87"/>
  <text class="big" x="27" y="8">1</text>
          <text class="big" x="13.5" y="22">A</text>
          <text class="small"
      x="36.5"
      y="32">A1</text>
      <circle class="well" cx="27.5" cy="20" r="11"/>
        <text class="big" x="13.5" y="47">B</text>
          <text class="small"
      x="36.5"
      y="57">B1</text>
      <circle class="well" cx="27.5" cy="45" r="11"/>
        <text class="big" x="13.5" y="72">C</text>
          <text class="small"
      x="36.5"
      y="82">C1</text>
      <circle class="well" cx="27.5" cy="70" r="11"/>
        <text class="big" x="52" y="8">2</text>
          <text class="small"
      x="61.5"
      y="32">A2</text>
      <circle class="well" cx="52.5" cy="20" r="11"/>
        <text class="small"
      x="61.5"
      y="57">B2</text>
      <circle class="well" cx="52.5" cy="45" r="11"/>
        <text class="small"
      x="61.5"
      y="82">C2</text>
      <circle class="well" cx="52.5" cy="70" r="11"/>
        <text class="big" x="77" y="8">3</text>
          <text class="small"
      x="86.5"
      y="32">A3</text>
      <circle class="well" cx="77.5" cy="20" r="11"/>
        <text class="small"
      x="86.5"
      y="57">B3</text>
      <circle class="well" cx="77.5" cy="45" r="11"/>
        <text class="small"
      x="86.5"
      y="82">C3</text>
      <circle class="well" cx="77.5" cy="70" r="11"/>
        <text class="big" x="102" y="8">4</text>
          <text class="small"
      x="111.5"
      y="32">A4</text>
      <circle class="well" cx="102.5" cy="20" r="11"/>
        <text class="small"
      x="111.5"
      y="57">B4</text>
      <circle class="well" cx="102.5" cy="45" r="11"/>
        <text class="small"
      x="111.5"
      y="82">C4</text>
      <circle class="well" cx="102.5" cy="70" r="11"/>
        </svg>