<svg xmlns="http://www.w3.org/2000/svg" viewBox="0 0 130 90">
  <style>
      .border{stroke: green;
        fill:  transparent;
        stroke-width: 1;}
      .well{stroke: green;
        fill: transparent;
        stroke-width: 0.3;}
      .small{fill:green;text-anchor:middle;
        font-size:3px;}
      .big{fill:green;text-anchor:middle;
        font-size:5px;}
  </style>
      <polyline class="border" points="1 87, 1 3, 125 3, 129 7, 129 87, 0.5 87"/>
  <text class="big" x="15.5" y="7.599999999999998">1</text>
          <text class="big" x="6" y="17.599999999999998">A</text>
          <text class="small"
      x="23"
      y="23.599999999999998">A1</text>
      <circle class="well" cx="16" cy="15.599999999999998" r="7.75"/>
        <text class="big" x="6" y="37.2">B</text>
          <text class="small"
      x="23"
      y="43.2">B1</text>
      <circle class="well" cx="16" cy="35.2" r="7.75"/>
        <text class="big" x="6" y="56.8">C</text>
          <text class="small"
      x="23"
      y="62.8">C1</text>
      <circle class="well" cx="16" cy="54.8" r="7.75"/>
        <text class="big" x="6" y="76.4">D</text>
          <text class="small"
      x="23"
      y="82.4">D1</text>
      <circle class="well" cx="16" cy="74.4" r="7.75"/>
        <text class="big" x="35.099999999999994" y="7.599999999999998">2</text>
          <text class="small"
      x="42.599999999999994"
      y="23.599999999999998">A2</text>
      <circle class="well" cx="35.599999999999994" cy="15.599999999999998" r="7.75"/>
        <text class="small"
      x="42.599999999999994"
      y="43.2">B2</text>
      <circle class="well" cx="35.599999999999994" cy="35.2" r="7.75"/>
        <text class="small"
      x="42.599999999999994"
      y="62.8">C2</text>
      <circle class="well" cx="35.599999999999994" cy="54.8" r="7.75"/>
        <text class="small"
      x="42.599999999999994"
      y="82.4">D2</text>
      <circle class="well" cx="35.599999999999994" cy="74.4" r="7.75"/>
        <text class="big" x="54.7" y="7.599999999999998">3</text>
          <text class="small"
      x="62.2"
      y="23.599999999999998">A3</text>
      <circle class="well" cx="55.2" cy="15.599999999999998" r="7.75"/>
        <text class="small"
      x="62.2"
      y="43.2">B3</text>
      <circle class="well" cx="55.2" cy="35.2" r="7.75"/>
        <text class="small"
      x="62.2"
      y="62.8">C3</text>
      <circle class="well" cx="55.2" cy="54.8" r="7.75"/>
        <text class="small"
      x="62.2"
      y="82.4">D3</text>
      <circle class="well" cx="55.2" cy="74.4" r="7.75"/>
        <text class="big" x="74.3" y="7.599999999999998">4</text>
          <text class="small"
      x="81.8"
      y="23.599999999999998">A4</text>
      <circle class="well" cx="74.8" cy="15.599999999999998" r="7.75"/>
        <text class="small"
      x="81.8"
      y="43.2">B4</text>
      <circle class="well" cx="74.8" cy="35.2" r="7.75"/>
        <text class="small"
      x="81.8"
      y="62.8">C4</text>
      <circle class="well" cx="74.8" cy="54.8" r="7.75"/>
        <text class="small"
      x="81.8"
      y="82.4">D4</text>
      <circle class="well" cx="74.8" cy="74.4" r="7.75"/>
        <text class="big" x="93.9" y="7.599999999999998">5</text>
          <text class="small"
      x="101.4"
      y="23.599999999999998">A5</text>
      <circle class="well" cx="94.4" cy="15.599999999999998" r="7.75"/>
        <text class="small"
      x="101.4"
      y="43.2">B5</text>
      <circle class="well" cx="94.4" cy="35.2" r="7.75"/>
        <text class="small"
      x="101.4"
      y="62.8">C5</text>
      <circle class="well" cx="94.4" cy="54.8" r="7.75"/>
        <text class="small"
      x="101.4"
      y="82.4">D5</text>
      <circle class="well" cx="94.4" cy="74.4" r="7.75"/>
        <text class="big" x="113.5" y="7.599999999999998">6</text>
          <text class="small"
      x="121"
      y="23.599999999999998">A6</text>
      <circle class="well" cx="114" cy="15.599999999999998" r="7.75"/>
        <text class="small"
      x="121"
      y="43.2">B6</text>
      <circle class="well" cx="114" cy="35.2" r="7.75"/>
        <text class="small"
      x="121"
      y="62.8">C6</text>
      <circle class="well" cx="114" cy="54.8" r="7.75"/>
        <text class="small"
      x="121"
      y="82.4">D6</text>
      <circle class="well" cx="114" cy="74.4" r="7.75"/>
        </svg>