<svg xmlns="http://www.w3.org/2000/svg" viewBox="0 0 130 90">
  <style>
      .border{stroke: green;
        fill:  transparent;
        stroke-width: 1;}
      .well{stroke: green;
        fill: transparent;
        stroke-width: 0.15;}
      .small{fill:green;text-anchor:middle;
        font-size:1px;}
      .big{fill:green;text-anchor:middle;
        font-size:3px;}
  </style>
      <polyline class="border" points="1 87, 1 3, 125 3, 129 7, 129 87, 0.5 87"/>
  <text class="big" x="9.800" y="6.500">1</text>
        <text class="big" x="6.300" y="10.000">A</text>
        <text class="small"  x="12.100" y="11.600">A1</text>
      <circle class="well" cx="9.800" cy="9.000" r="2.2"/>
      <text class="big" x="6.300" y="14.800">B</text>
        <text class="small"  x="12.100" y="16.400">B1</text>
      <circle class="well" cx="9.800" cy="13.800" r="2.2"/>
      <text class="big" x="6.300" y="19.600">C</text>
        <text class="small"  x="12.100" y="21.200">C1</text>
      <circle class="well" cx="9.800" cy="18.600" r="2.2"/>
      <text class="big" x="6.300" y="24.400">D</text>
        <text class="small"  x="12.100" y="26.000">D1</text>
      <circle class="well" cx="9.800" cy="23.400" r="2.2"/>
      <text class="big" x="6.300" y="29.200">E</text>
        <text class="small"  x="12.100" y="30.800">E1</text>
      <circle class="well" cx="9.800" cy="28.200" r="2.2"/>
      <text class="big" x="6.300" y="34.000">F</text>
        <text class="small"  x="12.100" y="35.600">F1</text>
      <circle class="well" cx="9.800" cy="33.000" r="2.2"/>
      <text class="big" x="6.300" y="38.800">G</text>
        <text class="small"  x="12.100" y="40.400">G1</text>
      <circle class="well" cx="9.800" cy="37.800" r="2.2"/>
      <text class="big" x="6.300" y="43.600">H</text>
        <text class="small"  x="12.100" y="45.200">H1</text>
      <circle class="well" cx="9.800" cy="42.600" r="2.2"/>
      <text class="big" x="6.300" y="48.400">I</text>
        <text class="small"  x="12.100" y="50.000">I1</text>
      <circle class="well" cx="9.800" cy="47.400" r="2.2"/>
      <text class="big" x="6.300" y="53.200">J</text>
        <text class="small"  x="12.100" y="54.800">J1</text>
      <circle class="well" cx="9.800" cy="52.200" r="2.2"/>
      <text class="big" x="6.300" y="58.000">K</text>
        <text class="small"  x="12.100" y="59.600">K1</text>
      <circle class="well" cx="9.800" cy="57.000" r="2.2"/>
      <text class="big" x="6.300" y="62.800">L</text>
        <text class="small"  x="12.100" y="64.400">L1</text>
      <circle class="well" cx="9.800" cy="61.800" r="2.2"/>
      <text class="big" x="6.300" y="67.600">M</text>
        <text class="small"  x="12.100" y="69.200">M1</text>
      <circle class="well" cx="9.800" cy="66.600" r="2.2"/>
      <text class="big" x="6.300" y="72.400">N</text>
        <text class="small"  x="12.100" y="74.000">N1</text>
      <circle class="well" cx="9.800" cy="71.400" r="2.2"/>
      <text class="big" x="6.300" y="77.200">O</text>
        <text class="small"  x="12.100" y="78.800">O1</text>
      <circle class="well" cx="9.800" cy="76.200" r="2.2"/>
      <text class="big" x="6.300" y="82.000">P</text>
        <text class="small"  x="12.100" y="83.600">P1</text>
      <circle class="well" cx="9.800" cy="81.000" r="2.2"/>
      <text class="big" x="14.600" y="6.500">2</text>
        <text class="small"  x="16.900" y="11.600">A2</text>
      <circle class="well" cx="14.600" cy="9.000" r="2.2"/>
      <text class="small"  x="16.900" y="16.400">B2</text>
      <circle class="well" cx="14.600" cy="13.800" r="2.2"/>
      <text class="small"  x="16.900" y="21.200">C2</text>
      <circle class="well" cx="14.600" cy="18.600" r="2.2"/>
      <text class="small"  x="16.900" y="26.000">D2</text>
      <circle class="well" cx="14.600" cy="23.400" r="2.2"/>
      <text class="small"  x="16.900" y="30.800">E2</text>
      <circle class="well" cx="14.600" cy="28.200" r="2.2"/>
      <text class="small"  x="16.900" y="35.600">F2</text>
      <circle class="well" cx="14.600" cy="33.000" r="2.2"/>
      <text class="small"  x="16.900" y="40.400">G2</text>
      <circle class="well" cx="14.600" cy="37.800" r="2.2"/>
      <text class="small"  x="16.900" y="45.200">H2</text>
      <circle class="well" cx="14.600" cy="42.600" r="2.2"/>
      <text class="small"  x="16.900" y="50.000">I2</text>
      <circle class="well" cx="14.600" cy="47.400" r="2.2"/>
      <text class="small"  x="16.900" y="54.800">J2</text>
      <circle class="well" cx="14.600" cy="52.200" r="2.2"/>
      <text class="small"  x="16.900" y="59.600">K2</text>
      <circle class="well" cx="14.600" cy="57.000" r="2.2"/>
      <text class="small"  x="16.900" y="64.400">L2</text>
      <circle class="well" cx="14.600" cy="61.800" r="2.2"/>
      <text class="small"  x="16.900" y="69.200">M2</text>
      <circle class="well" cx="14.600" cy="66.600" r="2.2"/>
      <text class="small"  x="16.900" y="74.000">N2</text>
      <circle class="well" cx="14.600" cy="71.400" r="2.2"/>
      <text class="small"  x="16.900" y="78.800">O2</text>
      <circle class="well" cx="14.600" cy="76.200" r="2.2"/>
      <text class="small"  x="16.900" y="83.600">P2</text>
      <circle class="well" cx="14.600" cy="81.000" r="2.2"/>
      <text class="big" x="19.400" y="6.500">3</text>
        <text class="small"  x="21.700" y="11.600">A3</text>
      <circle class="well" cx="19.400" cy="9.000" r="2.2"/>
      <text class="small"  x="21.700" y="16.400">B3</text>
      <circle class="well" cx="19.400" cy="13.800" r="2.2"/>
      <text class="small"  x="21.700" y="21.200">C3</text>
      <circle class="well" cx="19.400" cy="18.600" r="2.2"/>
      <text class="small"  x="21.700" y="26.000">D3</text>
      <circle class="well" cx="19.400" cy="23.400" r="2.2"/>
      <text class="small"  x="21.700" y="30.800">E3</text>
      <circle class="well" cx="19.400" cy="28.200" r="2.2"/>
      <text class="small"  x="21.700" y="35.600">F3</text>
      <circle class="well" cx="19.400" cy="33.000" r="2.2"/>
      <text class="small"  x="21.700" y="40.400">G3</text>
      <circle class="well" cx="19.400" cy="37.800" r="2.2"/>
      <text class="small"  x="21.700" y="45.200">H3</text>
      <circle class="well" cx="19.400" cy="42.600" r="2.2"/>
      <text class="small"  x="21.700" y="50.000">I3</text>
      <circle class="well" cx="19.400" cy="47.400" r="2.2"/>
      <text class="small"  x="21.700" y="54.800">J3</text>
      <circle class="well" cx="19.400" cy="52.200" r="2.2"/>
      <text class="small"  x="21.700" y="59.600">K3</text>
      <circle class="well" cx="19.400" cy="57.000" r="2.2"/>
      <text class="small"  x="21.700" y="64.400">L3</text>
      <circle class="well" cx="19.400" cy="61.800" r="2.2"/>
      <text class="small"  x="21.700" y="69.200">M3</text>
      <circle class="well" cx="19.400" cy="66.600" r="2.2"/>
      <text class="small"  x="21.700" y="74.000">N3</text>
      <circle class="well" cx="19.400" cy="71.400" r="2.2"/>
      <text class="small"  x="21.700" y="78.800">O3</text>
      <circle class="well" cx="19.400" cy="76.200" r="2.2"/>
      <text class="small"  x="21.700" y="83.600">P3</text>
      <circle class="well" cx="19.400" cy="81.000" r="2.2"/>
      <text class="big" x="24.200" y="6.500">4</text>
        <text class="small"  x="26.500" y="11.600">A4</text>
      <circle class="well" cx="24.200" cy="9.000" r="2.2"/>
      <text class="small"  x="26.500" y="16.400">B4</text>
      <circle class="well" cx="24.200" cy="13.800" r="2.2"/>
      <text class="small"  x="26.500" y="21.200">C4</text>
      <circle class="well" cx="24.200" cy="18.600" r="2.2"/>
      <text class="small"  x="26.500" y="26.000">D4</text>
      <circle class="well" cx="24.200" cy="23.400" r="2.2"/>
      <text class="small"  x="26.500" y="30.800">E4</text>
      <circle class="well" cx="24.200" cy="28.200" r="2.2"/>
      <text class="small"  x="26.500" y="35.600">F4</text>
      <circle class="well" cx="24.200" cy="33.000" r="2.2"/>
      <text class="small"  x="26.500" y="40.400">G4</text>
      <circle class="well" cx="24.200" cy="37.800" r="2.2"/>
      <text class="small"  x="26.500" y="45.200">H4</text>
      <circle class="well" cx="24.200" cy="42.600" r="2.2"/>
      <text class="small"  x="26.500" y="50.000">I4</text>
      <circle class="well" cx="24.200" cy="47.400" r="2.2"/>
      <text class="small"  x="26.500" y="54.800">J4</text>
      <circle class="well" cx="24.200" cy="52.200" r="2.2"/>
      <text class="small"  x="26.500" y="59.600">K4</text>
      <circle class="well" cx="24.200" cy="57.000" r="2.2"/>
      <text class="small"  x="26.500" y="64.400">L4</text>
      <circle class="well" cx="24.200" cy="61.800" r="2.2"/>
      <text class="small"  x="26.500" y="69.200">M4</text>
      <circle class="well" cx="24.200" cy="66.600" r="2.2"/>
      <text class="small"  x="26.500" y="74.000">N4</text>
      <circle class="well" cx="24.200" cy="71.400" r="2.2"/>
      <text class="small"  x="26.500" y="78.800">O4</text>
      <circle class="well" cx="24.200" cy="76.200" r="2.2"/>
      <text class="small"  x="26.500" y="83.600">P4</text>
      <circle class="well" cx="24.200" cy="81.000" r="2.2"/>
      <text class="big" x="29.000" y="6.500">5</text>
        <text class="small"  x="31.300" y="11.600">A5</text>
      <circle class="well" cx="29.000" cy="9.000" r="2.2"/>
      <text class="small"  x="31.300" y="16.400">B5</text>
      <circle class="well" cx="29.000" cy="13.800" r="2.2"/>
      <text class="small"  x="31.300" y="21.200">C5</text>
      <circle class="well" cx="29.000" cy="18.600" r="2.2"/>
      <text class="small"  x="31.300" y="26.000">D5</text>
      <circle class="well" cx="29.000" cy="23.400" r="2.2"/>
      <text class="small"  x="31.300" y="30.800">E5</text>
      <circle class="well" cx="29.000" cy="28.200" r="2.2"/>
      <text class="small"  x="31.300" y="35.600">F5</text>
      <circle class="well" cx="29.000" cy="33.000" r="2.2"/>
      <text class="small"  x="31.300" y="40.400">G5</text>
      <circle class="well" cx="29.000" cy="37.800" r="2.2"/>
      <text class="small"  x="31.300" y="45.200">H5</text>
      <circle class="well" cx="29.000" cy="42.600" r="2.2"/>
      <text class="small"  x="31.300" y="50.000">I5</text>
      <circle class="well" cx="29.000" cy="47.400" r="2.2"/>
      <text class="small"  x="31.300" y="54.800">J5</text>
      <circle class="well" cx="29.000" cy="52.200" r="2.2"/>
      <text class="small"  x="31.300" y="59.600">K5</text>
      <circle class="well" cx="29.000" cy="57.000" r="2.2"/>
      <text class="small"  x="31.300" y="64.400">L5</text>
      <circle class="well" cx="29.000" cy="61.800" r="2.2"/>
      <text class="small"  x="31.300" y="69.200">M5</text>
      <circle class="well" cx="29.000" cy="66.600" r="2.2"/>
      <text class="small"  x="31.300" y="74.000">N5</text>
      <circle class="well" cx="29.000" cy="71.400" r="2.2"/>
      <text class="small"  x="31.300" y="78.800">O5</text>
      <circle class="well" cx="29.000" cy="76.200" r="2.2"/>
      <text class="small"  x="31.300" y="83.600">P5</text>
      <circle class="well" cx="29.000" cy="81.000" r="2.2"/>
      <text class="big" x="33.800" y="6.500">6</text>
        <text class="small"  x="36.100" y="11.600">A6</text>
      <circle class="well" cx="33.800" cy="9.000" r="2.2"/>
      <text class="small"  x="36.100" y="16.400">B6</text>
      <circle class="well" cx="33.800" cy="13.800" r="2.2"/>
      <text class="small"  x="36.100" y="21.200">C6</text>
      <circle class="well" cx="33.800" cy="18.600" r="2.2"/>
      <text class="small"  x="36.100" y="26.000">D6</text>
      <circle class="well" cx="33.800" cy="23.400" r="2.2"/>
      <text class="small"  x="36.100" y="30.800">E6</text>
      <circle class="well" cx="33.800" cy="28.200" r="2.2"/>
      <text class="small"  x="36.100" y="35.600">F6</text>
      <circle class="well" cx="33.800" cy="33.000" r="2.2"/>
      <text class="small"  x="36.100" y="40.400">G6</text>
      <circle class="well" cx="33.800" cy="37.800" r="2.2"/>
      <text class="small"  x="36.100" y="45.200">H6</text>
      <circle class="well" cx="33.800" cy="42.600" r="2.2"/>
      <text class="small"  x="36.100" y="50.000">I6</text>
      <circle class="well" cx="33.800" cy="47.400" r="2.2"/>
      <text class="small"  x="36.100" y="54.800">J6</text>
      <circle class="well" cx="33.800" cy="52.200" r="2.2"/>
      <text class="small"  x="36.100" y="59.600">K6</text>
      <circle class="well" cx="33.800" cy="57.000" r="2.2"/>
      <text class="small"  x="36.100" y="64.400">L6</text>
      <circle class="well" cx="33.800" cy="61.800" r="2.2"/>
      <text class="small"  x="36.100" y="69.200">M6</text>
      <circle class="well" cx="33.800" cy="66.600" r="2.2"/>
      <text class="small"  x="36.100" y="74.000">N6</text>
      <circle class="well" cx="33.800" cy="71.400" r="2.2"/>
      <text class="small"  x="36.100" y="78.800">O6</text>
      <circle class="well" cx="33.800" cy="76.200" r="2.2"/>
      <text class="small"  x="36.100" y="83.600">P6</text>
      <circle class="well" cx="33.800" cy="81.000" r="2.2"/>
      <text class="big" x="38.600" y="6.500">7</text>
        <text class="small"  x="40.900" y="11.600">A7</text>
      <circle class="well" cx="38.600" cy="9.000" r="2.2"/>
      <text class="small"  x="40.900" y="16.400">B7</text>
      <circle class="well" cx="38.600" cy="13.800" r="2.2"/>
      <text class="small"  x="40.900" y="21.200">C7</text>
      <circle class="well" cx="38.600" cy="18.600" r="2.2"/>
      <text class="small"  x="40.900" y="26.000">D7</text>
      <circle class="well" cx="38.600" cy="23.400" r="2.2"/>
      <text class="small"  x="40.900" y="30.800">E7</text>
      <circle class="well" cx="38.600" cy="28.200" r="2.2"/>
      <text class="small"  x="40.900" y="35.600">F7</text>
      <circle class="well" cx="38.600" cy="33.000" r="2.2"/>
      <text class="small"  x="40.900" y="40.400">G7</text>
      <circle class="well" cx="38.600" cy="37.800" r="2.2"/>
      <text class="small"  x="40.900" y="45.200">H7</text>
      <circle class="well" cx="38.600" cy="42.600" r="2.2"/>
      <text class="small"  x="40.900" y="50.000">I7</text>
      <circle class="well" cx="38.600" cy="47.400" r="2.2"/>
      <text class="small"  x="40.900" y="54.800">J7</text>
      <circle class="well" cx="38.600" cy="52.200" r="2.2"/>
      <text class="small"  x="40.900" y="59.600">K7</text>
      <circle class="well" cx="38.600" cy="57.000" r="2.2"/>
      <text class="small"  x="40.900" y="64.400">L7</text>
      <circle class="well" cx="38.600" cy="61.800" r="2.2"/>
      <text class="small"  x="40.900" y="69.200">M7</text>
      <circle class="well" cx="38.600" cy="66.600" r="2.2"/>
      <text class="small"  x="40.900" y="74.000">N7</text>
      <circle class="well" cx="38.600" cy="71.400" r="2.2"/>
      <text class="small"  x="40.900" y="78.800">O7</text>
      <circle class="well" cx="38.600" cy="76.200" r="2.2"/>
      <text class="small"  x="40.900" y="83.600">P7</text>
      <circle class="well" cx="38.600" cy="81.000" r="2.2"/>
      <text class="big" x="43.400" y="6.500">8</text>
        <text class="small"  x="45.700" y="11.600">A8</text>
      <circle class="well" cx="43.400" cy="9.000" r="2.2"/>
      <text class="small"  x="45.700" y="16.400">B8</text>
      <circle class="well" cx="43.400" cy="13.800" r="2.2"/>
      <text class="small"  x="45.700" y="21.200">C8</text>
      <circle class="well" cx="43.400" cy="18.600" r="2.2"/>
      <text class="small"  x="45.700" y="26.000">D8</text>
      <circle class="well" cx="43.400" cy="23.400" r="2.2"/>
      <text class="small"  x="45.700" y="30.800">E8</text>
      <circle class="well" cx="43.400" cy="28.200" r="2.2"/>
      <text class="small"  x="45.700" y="35.600">F8</text>
      <circle class="well" cx="43.400" cy="33.000" r="2.2"/>
      <text class="small"  x="45.700" y="40.400">G8</text>
      <circle class="well" cx="43.400" cy="37.800" r="2.2"/>
      <text class="small"  x="45.700" y="45.200">H8</text>
      <circle class="well" cx="43.400" cy="42.600" r="2.2"/>
      <text class="small"  x="45.700" y="50.000">I8</text>
      <circle class="well" cx="43.400" cy="47.400" r="2.2"/>
      <text class="small"  x="45.700" y="54.800">J8</text>
      <circle class="well" cx="43.400" cy="52.200" r="2.2"/>
      <text class="small"  x="45.700" y="59.600">K8</text>
      <circle class="well" cx="43.400" cy="57.000" r="2.2"/>
      <text class="small"  x="45.700" y="64.400">L8</text>
      <circle class="well" cx="43.400" cy="61.800" r="2.2"/>
      <text class="small"  x="45.700" y="69.200">M8</text>
      <circle class="well" cx="43.400" cy="66.600" r="2.2"/>
      <text class="small"  x="45.700" y="74.000">N8</text>
      <circle class="well" cx="43.400" cy="71.400" r="2.2"/>
      <text class="small"  x="45.700" y="78.800">O8</text>
      <circle class="well" cx="43.400" cy="76.200" r="2.2"/>
      <text class="small"  x="45.700" y="83.600">P8</text>
      <circle class="well" cx="43.400" cy="81.000" r="2.2"/>
      <text class="big" x="48.200" y="6.500">9</text>
        <text class="small"  x="50.500" y="11.600">A9</text>
      <circle class="well" cx="48.200" cy="9.000" r="2.2"/>
      <text class="small"  x="50.500" y="16.400">B9</text>
      <circle class="well" cx="48.200" cy="13.800" r="2.2"/>
      <text class="small"  x="50.500" y="21.200">C9</text>
      <circle class="well" cx="48.200" cy="18.600" r="2.2"/>
      <text class="small"  x="50.500" y="26.000">D9</text>
      <circle class="well" cx="48.200" cy="23.400" r="2.2"/>
      <text class="small"  x="50.500" y="30.800">E9</text>
      <circle class="well" cx="48.200" cy="28.200" r="2.2"/>
      <text class="small"  x="50.500" y="35.600">F9</text>
      <circle class="well" cx="48.200" cy="33.000" r="2.2"/>
      <text class="small"  x="50.500" y="40.400">G9</text>
      <circle class="well" cx="48.200" cy="37.800" r="2.2"/>
      <text class="small"  x="50.500" y="45.200">H9</text>
      <circle class="well" cx="48.200" cy="42.600" r="2.2"/>
      <text class="small"  x="50.500" y="50.000">I9</text>
      <circle class="well" cx="48.200" cy="47.400" r="2.2"/>
      <text class="small"  x="50.500" y="54.800">J9</text>
      <circle class="well" cx="48.200" cy="52.200" r="2.2"/>
      <text class="small"  x="50.500" y="59.600">K9</text>
      <circle class="well" cx="48.200" cy="57.000" r="2.2"/>
      <text class="small"  x="50.500" y="64.400">L9</text>
      <circle class="well" cx="48.200" cy="61.800" r="2.2"/>
      <text class="small"  x="50.500" y="69.200">M9</text>
      <circle class="well" cx="48.200" cy="66.600" r="2.2"/>
      <text class="small"  x="50.500" y="74.000">N9</text>
      <circle class="well" cx="48.200" cy="71.400" r="2.2"/>
      <text class="small"  x="50.500" y="78.800">O9</text>
      <circle class="well" cx="48.200" cy="76.200" r="2.2"/>
      <text class="small"  x="50.500" y="83.600">P9</text>
      <circle class="well" cx="48.200" cy="81.000" r="2.2"/>
      <text class="big" x="53.000" y="6.500">10</text>
        <text class="small"  x="55.300" y="11.600">A10</text>
      <circle class="well" cx="53.000" cy="9.000" r="2.2"/>
      <text class="small"  x="55.300" y="16.400">B10</text>
      <circle class="well" cx="53.000" cy="13.800" r="2.2"/>
      <text class="small"  x="55.300" y="21.200">C10</text>
      <circle class="well" cx="53.000" cy="18.600" r="2.2"/>
      <text class="small"  x="55.300" y="26.000">D10</text>
      <circle class="well" cx="53.000" cy="23.400" r="2.2"/>
      <text class="small"  x="55.300" y="30.800">E10</text>
      <circle class="well" cx="53.000" cy="28.200" r="2.2"/>
      <text class="small"  x="55.300" y="35.600">F10</text>
      <circle class="well" cx="53.000" cy="33.000" r="2.2"/>
      <text class="small"  x="55.300" y="40.400">G10</text>
      <circle class="well" cx="53.000" cy="37.800" r="2.2"/>
      <text class="small"  x="55.300" y="45.200">H10</text>
      <circle class="well" cx="53.000" cy="42.600" r="2.2"/>
      <text class="small"  x="55.300" y="50.000">I10</text>
      <circle class="well" cx="53.000" cy="47.400" r="2.2"/>
      <text class="small"  x="55.300" y="54.800">J10</text>
      <circle class="well" cx="53.000" cy="52.200" r="2.2"/>
      <text class="small"  x="55.300" y="59.600">K10</text>
      <circle class="well" cx="53.000" cy="57.000" r="2.2"/>
      <text class="small"  x="55.300" y="64.400">L10</text>
      <circle class="well" cx="53.000" cy="61.800" r="2.2"/>
      <text class="small"  x="55.300" y="69.200">M10</text>
      <circle class="well" cx="53.000" cy="66.600" r="2.2"/>
      <text class="small"  x="55.300" y="74.000">N10</text>
      <circle class="well" cx="53.000" cy="71.400" r="2.2"/>
      <text class="small"  x="55.300" y="78.800">O10</text>
      <circle class="well" cx="53.000" cy="76.200" r="2.2"/>
      <text class="small"  x="55.300" y="83.600">P10</text>
      <circle class="well" cx="53.000" cy="81.000" r="2.2"/>
      <text class="big" x="57.800" y="6.500">11</text>
        <text class="small"  x="60.100" y="11.600">A11</text>
      <circle class="well" cx="57.800" cy="9.000" r="2.2"/>
      <text class="small"  x="60.100" y="16.400">B11</text>
      <circle class="well" cx="57.800" cy="13.800" r="2.2"/>
      <text class="small"  x="60.100" y="21.200">C11</text>
      <circle class="well" cx="57.800" cy="18.600" r="2.2"/>
      <text class="small"  x="60.100" y="26.000">D11</text>
      <circle class="well" cx="57.800" cy="23.400" r="2.2"/>
      <text class="small"  x="60.100" y="30.800">E11</text>
      <circle class="well" cx="57.800" cy="28.200" r="2.2"/>
      <text class="small"  x="60.100" y="35.600">F11</text>
      <circle class="well" cx="57.800" cy="33.000" r="2.2"/>
      <text class="small"  x="60.100" y="40.400">G11</text>
      <circle class="well" cx="57.800" cy="37.800" r="2.2"/>
      <text class="small"  x="60.100" y="45.200">H11</text>
      <circle class="well" cx="57.800" cy="42.600" r="2.2"/>
      <text class="small"  x="60.100" y="50.000">I11</text>
      <circle class="well" cx="57.800" cy="47.400" r="2.2"/>
      <text class="small"  x="60.100" y="54.800">J11</text>
      <circle class="well" cx="57.800" cy="52.200" r="2.2"/>
      <text class="small"  x="60.100" y="59.600">K11</text>
      <circle class="well" cx="57.800" cy="57.000" r="2.2"/>
      <text class="small"  x="60.100" y="64.400">L11</text>
      <circle class="well" cx="57.800" cy="61.800" r="2.2"/>
      <text class="small"  x="60.100" y="69.200">M11</text>
      <circle class="well" cx="57.800" cy="66.600" r="2.2"/>
      <text class="small"  x="60.100" y="74.000">N11</text>
      <circle class="well" cx="57.800" cy="71.400" r="2.2"/>
      <text class="small"  x="60.100" y="78.800">O11</text>
      <circle class="well" cx="57.800" cy="76.200" r="2.2"/>
      <text class="small"  x="60.100" y="83.600">P11</text>
      <circle class="well" cx="57.800" cy="81.000" r="2.2"/>
      <text class="big" x="62.600" y="6.500">12</text>
        <text class="small"  x="64.900" y="11.600">A12</text>
      <circle class="well" cx="62.600" cy="9.000" r="2.2"/>
      <text class="small"  x="64.900" y="16.400">B12</text>
      <circle class="well" cx="62.600" cy="13.800" r="2.2"/>
      <text class="small"  x="64.900" y="21.200">C12</text>
      <circle class="well" cx="62.600" cy="18.600" r="2.2"/>
      <text class="small"  x="64.900" y="26.000">D12</text>
      <circle class="well" cx="62.600" cy="23.400" r="2.2"/>
      <text class="small"  x="64.900" y="30.800">E12</text>
      <circle class="well" cx="62.600" cy="28.200" r="2.2"/>
      <text class="small"  x="64.900" y="35.600">F12</text>
      <circle class="well" cx="62.600" cy="33.000" r="2.2"/>
      <text class="small"  x="64.900" y="40.400">G12</text>
      <circle class="well" cx="62.600" cy="37.800" r="2.2"/>
      <text class="small"  x="64.900" y="45.200">H12</text>
      <circle class="well" cx="62.600" cy="42.600" r="2.2"/>
      <text class="small"  x="64.900" y="50.000">I12</text>
      <circle class="well" cx="62.600" cy="47.400" r="2.2"/>
      <text class="small"  x="64.900" y="54.800">J12</text>
      <circle class="well" cx="62.600" cy="52.200" r="2.2"/>
      <text class="small"  x="64.900" y="59.600">K12</text>
      <circle class="well" cx="62.600" cy="57.000" r="2.2"/>
      <text class="small"  x="64.900" y="64.400">L12</text>
      <circle class="well" cx="62.600" cy="61.800" r="2.2"/>
      <text class="small"  x="64.900" y="69.200">M12</text>
      <circle class="well" cx="62.600" cy="66.600" r="2.2"/>
      <text class="small"  x="64.900" y="74.000">N12</text>
      <circle class="well" cx="62.600" cy="71.400" r="2.2"/>
      <text class="small"  x="64.900" y="78.800">O12</text>
      <circle class="well" cx="62.600" cy="76.200" r="2.2"/>
      <text class="small"  x="64.900" y="83.600">P12</text>
      <circle class="well" cx="62.600" cy="81.000" r="2.2"/>
      <text class="big" x="67.400" y="6.500">13</text>
        <text class="small"  x="69.700" y="11.600">A13</text>
      <circle class="well" cx="67.400" cy="9.000" r="2.2"/>
      <text class="small"  x="69.700" y="16.400">B13</text>
      <circle class="well" cx="67.400" cy="13.800" r="2.2"/>
      <text class="small"  x="69.700" y="21.200">C13</text>
      <circle class="well" cx="67.400" cy="18.600" r="2.2"/>
      <text class="small"  x="69.700" y="26.000">D13</text>
      <circle class="well" cx="67.400" cy="23.400" r="2.2"/>
      <text class="small"  x="69.700" y="30.800">E13</text>
      <circle class="well" cx="67.400" cy="28.200" r="2.2"/>
      <text class="small"  x="69.700" y="35.600">F13</text>
      <circle class="well" cx="67.400" cy="33.000" r="2.2"/>
      <text class="small"  x="69.700" y="40.400">G13</text>
      <circle class="well" cx="67.400" cy="37.800" r="2.2"/>
      <text class="small"  x="69.700" y="45.200">H13</text>
      <circle class="well" cx="67.400" cy="42.600" r="2.2"/>
      <text class="small"  x="69.700" y="50.000">I13</text>
      <circle class="well" cx="67.400" cy="47.400" r="2.2"/>
      <text class="small"  x="69.700" y="54.800">J13</text>
      <circle class="well" cx="67.400" cy="52.200" r="2.2"/>
      <text class="small"  x="69.700" y="59.600">K13</text>
      <circle class="well" cx="67.400" cy="57.000" r="2.2"/>
      <text class="small"  x="69.700" y="64.400">L13</text>
      <circle class="well" cx="67.400" cy="61.800" r="2.2"/>
      <text class="small"  x="69.700" y="69.200">M13</text>
      <circle class="well" cx="67.400" cy="66.600" r="2.2"/>
      <text class="small"  x="69.700" y="74.000">N13</text>
      <circle class="well" cx="67.400" cy="71.400" r="2.2"/>
      <text class="small"  x="69.700" y="78.800">O13</text>
      <circle class="well" cx="67.400" cy="76.200" r="2.2"/>
      <text class="small"  x="69.700" y="83.600">P13</text>
      <circle class="well" cx="67.400" cy="81.000" r="2.2"/>
      <text class="big" x="72.200" y="6.500">14</text>
        <text class="small"  x="74.500" y="11.600">A14</text>
      <circle class="well" cx="72.200" cy="9.000" r="2.2"/>
      <text class="small"  x="74.500" y="16.400">B14</text>
      <circle class="well" cx="72.200" cy="13.800" r="2.2"/>
      <text class="small"  x="74.500" y="21.200">C14</text>
      <circle class="well" cx="72.200" cy="18.600" r="2.2"/>
      <text class="small"  x="74.500" y="26.000">D14</text>
      <circle class="well" cx="72.200" cy="23.400" r="2.2"/>
      <text class="small"  x="74.500" y="30.800">E14</text>
      <circle class="well" cx="72.200" cy="28.200" r="2.2"/>
      <text class="small"  x="74.500" y="35.600">F14</text>
      <circle class="well" cx="72.200" cy="33.000" r="2.2"/>
      <text class="small"  x="74.500" y="40.400">G14</text>
      <circle class="well" cx="72.200" cy="37.800" r="2.2"/>
      <text class="small"  x="74.500" y="45.200">H14</text>
      <circle class="well" cx="72.200" cy="42.600" r="2.2"/>
      <text class="small"  x="74.500" y="50.000">I14</text>
      <circle class="well" cx="72.200" cy="47.400" r="2.2"/>
      <text class="small"  x="74.500" y="54.800">J14</text>
      <circle class="well" cx="72.200" cy="52.200" r="2.2"/>
      <text class="small"  x="74.500" y="59.600">K14</text>
      <circle class="well" cx="72.200" cy="57.000" r="2.2"/>
      <text class="small"  x="74.500" y="64.400">L14</text>
      <circle class="well" cx="72.200" cy="61.800" r="2.2"/>
      <text class="small"  x="74.500" y="69.200">M14</text>
      <circle class="well" cx="72.200" cy="66.600" r="2.2"/>
      <text class="small"  x="74.500" y="74.000">N14</text>
      <circle class="well" cx="72.200" cy="71.400" r="2.2"/>
      <text class="small"  x="74.500" y="78.800">O14</text>
      <circle class="well" cx="72.200" cy="76.200" r="2.2"/>
      <text class="small"  x="74.500" y="83.600">P14</text>
      <circle class="well" cx="72.200" cy="81.000" r="2.2"/>
      <text class="big" x="77.000" y="6.500">15</text>
        <text class="small"  x="79.300" y="11.600">A15</text>
      <circle class="well" cx="77.000" cy="9.000" r="2.2"/>
      <text class="small"  x="79.300" y="16.400">B15</text>
      <circle class="well" cx="77.000" cy="13.800" r="2.2"/>
      <text class="small"  x="79.300" y="21.200">C15</text>
      <circle class="well" cx="77.000" cy="18.600" r="2.2"/>
      <text class="small"  x="79.300" y="26.000">D15</text>
      <circle class="well" cx="77.000" cy="23.400" r="2.2"/>
      <text class="small"  x="79.300" y="30.800">E15</text>
      <circle class="well" cx="77.000" cy="28.200" r="2.2"/>
      <text class="small"  x="79.300" y="35.600">F15</text>
      <circle class="well" cx="77.000" cy="33.000" r="2.2"/>
      <text class="small"  x="79.300" y="40.400">G15</text>
      <circle class="well" cx="77.000" cy="37.800" r="2.2"/>
      <text class="small"  x="79.300" y="45.200">H15</text>
      <circle class="well" cx="77.000" cy="42.600" r="2.2"/>
      <text class="small"  x="79.300" y="50.000">I15</text>
      <circle class="well" cx="77.000" cy="47.400" r="2.2"/>
      <text class="small"  x="79.300" y="54.800">J15</text>
      <circle class="well" cx="77.000" cy="52.200" r="2.2"/>
      <text class="small"  x="79.300" y="59.600">K15</text>
      <circle class="well" cx="77.000" cy="57.000" r="2.2"/>
      <text class="small"  x="79.300" y="64.400">L15</text>
      <circle class="well" cx="77.000" cy="61.800" r="2.2"/>
      <text class="small"  x="79.300" y="69.200">M15</text>
      <circle class="well" cx="77.000" cy="66.600" r="2.2"/>
      <text class="small"  x="79.300" y="74.000">N15</text>
      <circle class="well" cx="77.000" cy="71.400" r="2.2"/>
      <text class="small"  x="79.300" y="78.800">O15</text>
      <circle class="well" cx="77.000" cy="76.200" r="2.2"/>
      <text class="small"  x="79.300" y="83.600">P15</text>
      <circle class="well" cx="77.000" cy="81.000" r="2.2"/>
      <text class="big" x="81.800" y="6.500">16</text>
        <text class="small"  x="84.100" y="11.600">A16</text>
      <circle class="well" cx="81.800" cy="9.000" r="2.2"/>
      <text class="small"  x="84.100" y="16.400">B16</text>
      <circle class="well" cx="81.800" cy="13.800" r="2.2"/>
      <text class="small"  x="84.100" y="21.200">C16</text>
      <circle class="well" cx="81.800" cy="18.600" r="2.2"/>
      <text class="small"  x="84.100" y="26.000">D16</text>
      <circle class="well" cx="81.800" cy="23.400" r="2.2"/>
      <text class="small"  x="84.100" y="30.800">E16</text>
      <circle class="well" cx="81.800" cy="28.200" r="2.2"/>
      <text class="small"  x="84.100" y="35.600">F16</text>
      <circle class="well" cx="81.800" cy="33.000" r="2.2"/>
      <text class="small"  x="84.100" y="40.400">G16</text>
      <circle class="well" cx="81.800" cy="37.800" r="2.2"/>
      <text class="small"  x="84.100" y="45.200">H16</text>
      <circle class="well" cx="81.800" cy="42.600" r="2.2"/>
      <text class="small"  x="84.100" y="50.000">I16</text>
      <circle class="well" cx="81.800" cy="47.400" r="2.2"/>
      <text class="small"  x="84.100" y="54.800">J16</text>
      <circle class="well" cx="81.800" cy="52.200" r="2.2"/>
      <text class="small"  x="84.100" y="59.600">K16</text>
      <circle class="well" cx="81.800" cy="57.000" r="2.2"/>
      <text class="small"  x="84.100" y="64.400">L16</text>
      <circle class="well" cx="81.800" cy="61.800" r="2.2"/>
      <text class="small"  x="84.100" y="69.200">M16</text>
      <circle class="well" cx="81.800" cy="66.600" r="2.2"/>
      <text class="small"  x="84.100" y="74.000">N16</text>
      <circle class="well" cx="81.800" cy="71.400" r="2.2"/>
      <text class="small"  x="84.100" y="78.800">O16</text>
      <circle class="well" cx="81.800" cy="76.200" r="2.2"/>
      <text class="small"  x="84.100" y="83.600">P16</text>
      <circle class="well" cx="81.800" cy="81.000" r="2.2"/>
      <text class="big" x="86.600" y="6.500">17</text>
        <text class="small"  x="88.900" y="11.600">A17</text>
      <circle class="well" cx="86.600" cy="9.000" r="2.2"/>
      <text class="small"  x="88.900" y="16.400">B17</text>
      <circle class="well" cx="86.600" cy="13.800" r="2.2"/>
      <text class="small"  x="88.900" y="21.200">C17</text>
      <circle class="well" cx="86.600" cy="18.600" r="2.2"/>
      <text class="small"  x="88.900" y="26.000">D17</text>
      <circle class="well" cx="86.600" cy="23.400" r="2.2"/>
      <text class="small"  x="88.900" y="30.800">E17</text>
      <circle class="well" cx="86.600" cy="28.200" r="2.2"/>
      <text class="small"  x="88.900" y="35.600">F17</text>
      <circle class="well" cx="86.600" cy="33.000" r="2.2"/>
      <text class="small"  x="88.900" y="40.400">G17</text>
      <circle class="well" cx="86.600" cy="37.800" r="2.2"/>
      <text class="small"  x="88.900" y="45.200">H17</text>
      <circle class="well" cx="86.600" cy="42.600" r="2.2"/>
      <text class="small"  x="88.900" y="50.000">I17</text>
      <circle class="well" cx="86.600" cy="47.400" r="2.2"/>
      <text class="small"  x="88.900" y="54.800">J17</text>
      <circle class="well" cx="86.600" cy="52.200" r="2.2"/>
      <text class="small"  x="88.900" y="59.600">K17</text>
      <circle class="well" cx="86.600" cy="57.000" r="2.2"/>
      <text class="small"  x="88.900" y="64.400">L17</text>
      <circle class="well" cx="86.600" cy="61.800" r="2.2"/>
      <text class="small"  x="88.900" y="69.200">M17</text>
      <circle class="well" cx="86.600" cy="66.600" r="2.2"/>
      <text class="small"  x="88.900" y="74.000">N17</text>
      <circle class="well" cx="86.600" cy="71.400" r="2.2"/>
      <text class="small"  x="88.900" y="78.800">O17</text>
      <circle class="well" cx="86.600" cy="76.200" r="2.2"/>
      <text class="small"  x="88.900" y="83.600">P17</text>
      <circle class="well" cx="86.600" cy="81.000" r="2.2"/>
      <text class="big" x="91.400" y="6.500">18</text>
        <text class="small"  x="93.700" y="11.600">A18</text>
      <circle class="well" cx="91.400" cy="9.000" r="2.2"/>
      <text class="small"  x="93.700" y="16.400">B18</text>
      <circle class="well" cx="91.400" cy="13.800" r="2.2"/>
      <text class="small"  x="93.700" y="21.200">C18</text>
      <circle class="well" cx="91.400" cy="18.600" r="2.2"/>
      <text class="small"  x="93.700" y="26.000">D18</text>
      <circle class="well" cx="91.400" cy="23.400" r="2.2"/>
      <text class="small"  x="93.700" y="30.800">E18</text>
      <circle class="well" cx="91.400" cy="28.200" r="2.2"/>
      <text class="small"  x="93.700" y="35.600">F18</text>
      <circle class="well" cx="91.400" cy="33.000" r="2.2"/>
      <text class="small"  x="93.700" y="40.400">G18</text>
      <circle class="well" cx="91.400" cy="37.800" r="2.2"/>
      <text class="small"  x="93.700" y="45.200">H18</text>
      <circle class="well" cx="91.400" cy="42.600" r="2.2"/>
      <text class="small"  x="93.700" y="50.000">I18</text>
      <circle class="well" cx="91.400" cy="47.400" r="2.2"/>
      <text class="small"  x="93.700" y="54.800">J18</text>
      <circle class="well" cx="91.400" cy="52.200" r="2.2"/>
      <text class="small"  x="93.700" y="59.600">K18</text>
      <circle class="well" cx="91.400" cy="57.000" r="2.2"/>
      <text class="small"  x="93.700" y="64.400">L18</text>
      <circle class="well" cx="91.400" cy="61.800" r="2.2"/>
      <text class="small"  x="93.700" y="69.200">M18</text>
      <circle class="well" cx="91.400" cy="66.600" r="2.2"/>
      <text class="small"  x="93.700" y="74.000">N18</text>
      <circle class="well" cx="91.400" cy="71.400" r="2.2"/>
      <text class="small"  x="93.700" y="78.800">O18</text>
      <circle class="well" cx="91.400" cy="76.200" r="2.2"/>
      <text class="small"  x="93.700" y="83.600">P18</text>
      <circle class="well" cx="91.400" cy="81.000" r="2.2"/>
      <text class="big" x="96.200" y="6.500">19</text>
        <text class="small"  x="98.500" y="11.600">A19</text>
      <circle class="well" cx="96.200" cy="9.000" r="2.2"/>
      <text class="small"  x="98.500" y="16.400">B19</text>
      <circle class="well" cx="96.200" cy="13.800" r="2.2"/>
      <text class="small"  x="98.500" y="21.200">C19</text>
      <circle class="well" cx="96.200" cy="18.600" r="2.2"/>
      <text class="small"  x="98.500" y="26.000">D19</text>
      <circle class="well" cx="96.200" cy="23.400" r="2.2"/>
      <text class="small"  x="98.500" y="30.800">E19</text>
      <circle class="well" cx="96.200" cy="28.200" r="2.2"/>
      <text class="small"  x="98.500" y="35.600">F19</text>
      <circle class="well" cx="96.200" cy="33.000" r="2.2"/>
      <text class="small"  x="98.500" y="40.400">G19</text>
      <circle class="well" cx="96.200" cy="37.800" r="2.2"/>
      <text class="small"  x="98.500" y="45.200">H19</text>
      <circle class="well" cx="96.200" cy="42.600" r="2.2"/>
      <text class="small"  x="98.500" y="50.000">I19</text>
      <circle class="well" cx="96.200" cy="47.400" r="2.2"/>
      <text class="small"  x="98.500" y="54.800">J19</text>
      <circle class="well" cx="96.200" cy="52.200" r="2.2"/>
      <text class="small"  x="98.500" y="59.600">K19</text>
      <circle class="well" cx="96.200" cy="57.000" r="2.2"/>
      <text class="small"  x="98.500" y="64.400">L19</text>
      <circle class="well" cx="96.200" cy="61.800" r="2.2"/>
      <text class="small"  x="98.500" y="69.200">M19</text>
      <circle class="well" cx="96.200" cy="66.600" r="2.2"/>
      <text class="small"  x="98.500" y="74.000">N19</text>
      <circle class="well" cx="96.200" cy="71.400" r="2.2"/>
      <text class="small"  x="98.500" y="78.800">O19</text>
      <circle class="well" cx="96.200" cy="76.200" r="2.2"/>
      <text class="small"  x="98.500" y="83.600">P19</text>
      <circle class="well" cx="96.200" cy="81.000" r="2.2"/>
      <text class="big" x="101.000" y="6.500">20</text>
        <text class="small"  x="103.300" y="11.600">A20</text>
      <circle class="well" cx="101.000" cy="9.000" r="2.2"/>
      <text class="small"  x="103.300" y="16.400">B20</text>
      <circle class="well" cx="101.000" cy="13.800" r="2.2"/>
      <text class="small"  x="103.300" y="21.200">C20</text>
      <circle class="well" cx="101.000" cy="18.600" r="2.2"/>
      <text class="small"  x="103.300" y="26.000">D20</text>
      <circle class="well" cx="101.000" cy="23.400" r="2.2"/>
      <text class="small"  x="103.300" y="30.800">E20</text>
      <circle class="well" cx="101.000" cy="28.200" r="2.2"/>
      <text class="small"  x="103.300" y="35.600">F20</text>
      <circle class="well" cx="101.000" cy="33.000" r="2.2"/>
      <text class="small"  x="103.300" y="40.400">G20</text>
      <circle class="well" cx="101.000" cy="37.800" r="2.2"/>
      <text class="small"  x="103.300" y="45.200">H20</text>
      <circle class="well" cx="101.000" cy="42.600" r="2.2"/>
      <text class="small"  x="103.300" y="50.000">I20</text>
      <circle class="well" cx="101.000" cy="47.400" r="2.2"/>
      <text class="small"  x="103.300" y="54.800">J20</text>
      <circle class="well" cx="101.000" cy="52.200" r="2.2"/>
      <text class="small"  x="103.300" y="59.600">K20</text>
      <circle class="well" cx="101.000" cy="57.000" r="2.2"/>
      <text class="small"  x="103.300" y="64.400">L20</text>
      <circle class="well" cx="101.000" cy="61.800" r="2.2"/>
      <text class="small"  x="103.300" y="69.200">M20</text>
      <circle class="well" cx="101.000" cy="66.600" r="2.2"/>
      <text class="small"  x="103.300" y="74.000">N20</text>
      <circle class="well" cx="101.000" cy="71.400" r="2.2"/>
      <text class="small"  x="103.300" y="78.800">O20</text>
      <circle class="well" cx="101.000" cy="76.200" r="2.2"/>
      <text class="small"  x="103.300" y="83.600">P20</text>
      <circle class="well" cx="101.000" cy="81.000" r="2.2"/>
      <text class="big" x="105.800" y="6.500">21</text>
        <text class="small"  x="108.100" y="11.600">A21</text>
      <circle class="well" cx="105.800" cy="9.000" r="2.2"/>
      <text class="small"  x="108.100" y="16.400">B21</text>
      <circle class="well" cx="105.800" cy="13.800" r="2.2"/>
      <text class="small"  x="108.100" y="21.200">C21</text>
      <circle class="well" cx="105.800" cy="18.600" r="2.2"/>
      <text class="small"  x="108.100" y="26.000">D21</text>
      <circle class="well" cx="105.800" cy="23.400" r="2.2"/>
      <text class="small"  x="108.100" y="30.800">E21</text>
      <circle class="well" cx="105.800" cy="28.200" r="2.2"/>
      <text class="small"  x="108.100" y="35.600">F21</text>
      <circle class="well" cx="105.800" cy="33.000" r="2.2"/>
      <text class="small"  x="108.100" y="40.400">G21</text>
      <circle class="well" cx="105.800" cy="37.800" r="2.2"/>
      <text class="small"  x="108.100" y="45.200">H21</text>
      <circle class="well" cx="105.800" cy="42.600" r="2.2"/>
      <text class="small"  x="108.100" y="50.000">I21</text>
      <circle class="well" cx="105.800" cy="47.400" r="2.2"/>
      <text class="small"  x="108.100" y="54.800">J21</text>
      <circle class="well" cx="105.800" cy="52.200" r="2.2"/>
      <text class="small"  x="108.100" y="59.600">K21</text>
      <circle class="well" cx="105.800" cy="57.000" r="2.2"/>
      <text class="small"  x="108.100" y="64.400">L21</text>
      <circle class="well" cx="105.800" cy="61.800" r="2.2"/>
      <text class="small"  x="108.100" y="69.200">M21</text>
      <circle class="well" cx="105.800" cy="66.600" r="2.2"/>
      <text class="small"  x="108.100" y="74.000">N21</text>
      <circle class="well" cx="105.800" cy="71.400" r="2.2"/>
      <text class="small"  x="108.100" y="78.800">O21</text>
      <circle class="well" cx="105.800" cy="76.200" r="2.2"/>
      <text class="small"  x="108.100" y="83.600">P21</text>
      <circle class="well" cx="105.800" cy="81.000" r="2.2"/>
      <text class="big" x="110.600" y="6.500">22</text>
        <text class="small"  x="112.900" y="11.600">A22</text>
      <circle class="well" cx="110.600" cy="9.000" r="2.2"/>
      <text class="small"  x="112.900" y="16.400">B22</text>
      <circle class="well" cx="110.600" cy="13.800" r="2.2"/>
      <text class="small"  x="112.900" y="21.200">C22</text>
      <circle class="well" cx="110.600" cy="18.600" r="2.2"/>
      <text class="small"  x="112.900" y="26.000">D22</text>
      <circle class="well" cx="110.600" cy="23.400" r="2.2"/>
      <text class="small"  x="112.900" y="30.800">E22</text>
      <circle class="well" cx="110.600" cy="28.200" r="2.2"/>
      <text class="small"  x="112.900" y="35.600">F22</text>
      <circle class="well" cx="110.600" cy="33.000" r="2.2"/>
      <text class="small"  x="112.900" y="40.400">G22</text>
      <circle class="well" cx="110.600" cy="37.800" r="2.2"/>
      <text class="small"  x="112.900" y="45.200">H22</text>
      <circle class="well" cx="110.600" cy="42.600" r="2.2"/>
      <text class="small"  x="112.900" y="50.000">I22</text>
      <circle class="well" cx="110.600" cy="47.400" r="2.2"/>
      <text class="small"  x="112.900" y="54.800">J22</text>
      <circle class="well" cx="110.600" cy="52.200" r="2.2"/>
      <text class="small"  x="112.900" y="59.600">K22</text>
      <circle class="well" cx="110.600" cy="57.000" r="2.2"/>
      <text class="small"  x="112.900" y="64.400">L22</text>
      <circle class="well" cx="110.600" cy="61.800" r="2.2"/>
      <text class="small"  x="112.900" y="69.200">M22</text>
      <circle class="well" cx="110.600" cy="66.600" r="2.2"/>
      <text class="small"  x="112.900" y="74.000">N22</text>
      <circle class="well" cx="110.600" cy="71.400" r="2.2"/>
      <text class="small"  x="112.900" y="78.800">O22</text>
      <circle class="well" cx="110.600" cy="76.200" r="2.2"/>
      <text class="small"  x="112.900" y="83.600">P22</text>
      <circle class="well" cx="110.600" cy="81.000" r="2.2"/>
      <text class="big" x="115.400" y="6.500">23</text>
        <text class="small"  x="117.700" y="11.600">A23</text>
      <circle class="well" cx="115.400" cy="9.000" r="2.2"/>
      <text class="small"  x="117.700" y="16.400">B23</text>
      <circle class="well" cx="115.400" cy="13.800" r="2.2"/>
      <text class="small"  x="117.700" y="21.200">C23</text>
      <circle class="well" cx="115.400" cy="18.600" r="2.2"/>
      <text class="small"  x="117.700" y="26.000">D23</text>
      <circle class="well" cx="115.400" cy="23.400" r="2.2"/>
      <text class="small"  x="117.700" y="30.800">E23</text>
      <circle class="well" cx="115.400" cy="28.200" r="2.2"/>
      <text class="small"  x="117.700" y="35.600">F23</text>
      <circle class="well" cx="115.400" cy="33.000" r="2.2"/>
      <text class="small"  x="117.700" y="40.400">G23</text>
      <circle class="well" cx="115.400" cy="37.800" r="2.2"/>
      <text class="small"  x="117.700" y="45.200">H23</text>
      <circle class="well" cx="115.400" cy="42.600" r="2.2"/>
      <text class="small"  x="117.700" y="50.000">I23</text>
      <circle class="well" cx="115.400" cy="47.400" r="2.2"/>
      <text class="small"  x="117.700" y="54.800">J23</text>
      <circle class="well" cx="115.400" cy="52.200" r="2.2"/>
      <text class="small"  x="117.700" y="59.600">K23</text>
      <circle class="well" cx="115.400" cy="57.000" r="2.2"/>
      <text class="small"  x="117.700" y="64.400">L23</text>
      <circle class="well" cx="115.400" cy="61.800" r="2.2"/>
      <text class="small"  x="117.700" y="69.200">M23</text>
      <circle class="well" cx="115.400" cy="66.600" r="2.2"/>
      <text class="small"  x="117.700" y="74.000">N23</text>
      <circle class="well" cx="115.400" cy="71.400" r="2.2"/>
      <text class="small"  x="117.700" y="78.800">O23</text>
      <circle class="well" cx="115.400" cy="76.200" r="2.2"/>
      <text class="small"  x="117.700" y="83.600">P23</text>
      <circle class="well" cx="115.400" cy="81.000" r="2.2"/>
      <text class="big" x="120.200" y="6.500">24</text>
        <text class="small"  x="122.500" y="11.600">A24</text>
      <circle class="well" cx="120.200" cy="9.000" r="2.2"/>
      <text class="small"  x="122.500" y="16.400">B24</text>
      <circle class="well" cx="120.200" cy="13.800" r="2.2"/>
      <text class="small"  x="122.500" y="21.200">C24</text>
      <circle class="well" cx="120.200" cy="18.600" r="2.2"/>
      <text class="small"  x="122.500" y="26.000">D24</text>
      <circle class="well" cx="120.200" cy="23.400" r="2.2"/>
      <text class="small"  x="122.500" y="30.800">E24</text>
      <circle class="well" cx="120.200" cy="28.200" r="2.2"/>
      <text class="small"  x="122.500" y="35.600">F24</text>
      <circle class="well" cx="120.200" cy="33.000" r="2.2"/>
      <text class="small"  x="122.500" y="40.400">G24</text>
      <circle class="well" cx="120.200" cy="37.800" r="2.2"/>
      <text class="small"  x="122.500" y="45.200">H24</text>
      <circle class="well" cx="120.200" cy="42.600" r="2.2"/>
      <text class="small"  x="122.500" y="50.000">I24</text>
      <circle class="well" cx="120.200" cy="47.400" r="2.2"/>
      <text class="small"  x="122.500" y="54.800">J24</text>
      <circle class="well" cx="120.200" cy="52.200" r="2.2"/>
      <text class="small"  x="122.500" y="59.600">K24</text>
      <circle class="well" cx="120.200" cy="57.000" r="2.2"/>
      <text class="small"  x="122.500" y="64.400">L24</text>
      <circle class="well" cx="120.200" cy="61.800" r="2.2"/>
      <text class="small"  x="122.500" y="69.200">M24</text>
      <circle class="well" cx="120.200" cy="66.600" r="2.2"/>
      <text class="small"  x="122.500" y="74.000">N24</text>
      <circle class="well" cx="120.200" cy="71.400" r="2.2"/>
      <text class="small"  x="122.500" y="78.800">O24</text>
      <circle class="well" cx="120.200" cy="76.200" r="2.2"/>
      <text class="small"  x="122.500" y="83.600">P24</text>
      <circle class="well" cx="120.200" cy="81.000" r="2.2"/>
      </svg>