<svg xmlns="http://www.w3.org/2000/svg" viewBox="0 0 130 90">
  <style>
      .border{stroke: green;
        fill:  transparent;
        stroke-width: 1;}
      .well{stroke: green;
        fill: transparent;
        stroke-width: 0.2;}
      .small{fill:green;text-anchor:middle;
        font-size:2px;}
      .big{fill:green;text-anchor:middle;
        font-size:6px;}
  </style>
      <polyline class="border" points="1 87, 1 3, 125 3, 129 7, 129 87, 0.5 87"/>
  <text class="big" x="15" y="8.5">1</text>
          <text class="big" x="8.5" y="15.5">A</text>
          <text class="small"
      x="19.5"
      y="18.5">A1</text>
      <circle class="well" cx="15.5" cy="13.5" r="4"/>
        <text class="big" x="8.5" y="24.5">B</text>
          <text class="small"
      x="19.5"
      y="27.5">B1</text>
      <circle class="well" cx="15.5" cy="22.5" r="4"/>
        <text class="big" x="8.5" y="33.5">C</text>
          <text class="small"
      x="19.5"
      y="36.5">C1</text>
      <circle class="well" cx="15.5" cy="31.5" r="4"/>
        <text class="big" x="8.5" y="42.5">D</text>
          <text class="small"
      x="19.5"
      y="45.5">D1</text>
      <circle class="well" cx="15.5" cy="40.5" r="4"/>
        <text class="big" x="8.5" y="51.5">E</text>
          <text class="small"
      x="19.5"
      y="54.5">E1</text>
      <circle class="well" cx="15.5" cy="49.5" r="4"/>
        <text class="big" x="8.5" y="60.5">F</text>
          <text class="small"
      x="19.5"
      y="63.5">F1</text>
      <circle class="well" cx="15.5" cy="58.5" r="4"/>
        <text class="big" x="8.5" y="69.5">G</text>
          <text class="small"
      x="19.5"
      y="72.5">G1</text>
      <circle class="well" cx="15.5" cy="67.5" r="4"/>
        <text class="big" x="8.5" y="78.5">H</text>
          <text class="small"
      x="19.5"
      y="81.5">H1</text>
      <circle class="well" cx="15.5" cy="76.5" r="4"/>
        <text class="big" x="24" y="8.5">2</text>
          <text class="small"
      x="28.5"
      y="18.5">A2</text>
      <circle class="well" cx="24.5" cy="13.5" r="4"/>
        <text class="small"
      x="28.5"
      y="27.5">B2</text>
      <circle class="well" cx="24.5" cy="22.5" r="4"/>
        <text class="small"
      x="28.5"
      y="36.5">C2</text>
      <circle class="well" cx="24.5" cy="31.5" r="4"/>
        <text class="small"
      x="28.5"
      y="45.5">D2</text>
      <circle class="well" cx="24.5" cy="40.5" r="4"/>
        <text class="small"
      x="28.5"
      y="54.5">E2</text>
      <circle class="well" cx="24.5" cy="49.5" r="4"/>
        <text class="small"
      x="28.5"
      y="63.5">F2</text>
      <circle class="well" cx="24.5" cy="58.5" r="4"/>
        <text class="small"
      x="28.5"
      y="72.5">G2</text>
      <circle class="well" cx="24.5" cy="67.5" r="4"/>
        <text class="small"
      x="28.5"
      y="81.5">H2</text>
      <circle class="well" cx="24.5" cy="76.5" r="4"/>
        <text class="big" x="33" y="8.5">3</text>
          <text class="small"
      x="37.5"
      y="18.5">A3</text>
      <circle class="well" cx="33.5" cy="13.5" r="4"/>
        <text class="small"
      x="37.5"
      y="27.5">B3</text>
      <circle class="well" cx="33.5" cy="22.5" r="4"/>
        <text class="small"
      x="37.5"
      y="36.5">C3</text>
      <circle class="well" cx="33.5" cy="31.5" r="4"/>
        <text class="small"
      x="37.5"
      y="45.5">D3</text>
      <circle class="well" cx="33.5" cy="40.5" r="4"/>
        <text class="small"
      x="37.5"
      y="54.5">E3</text>
      <circle class="well" cx="33.5" cy="49.5" r="4"/>
        <text class="small"
      x="37.5"
      y="63.5">F3</text>
      <circle class="well" cx="33.5" cy="58.5" r="4"/>
        <text class="small"
      x="37.5"
      y="72.5">G3</text>
      <circle class="well" cx="33.5" cy="67.5" r="4"/>
        <text class="small"
      x="37.5"
      y="81.5">H3</text>
      <circle class="well" cx="33.5" cy="76.5" r="4"/>
        <text class="big" x="42" y="8.5">4</text>
          <text class="small"
      x="46.5"
      y="18.5">A4</text>
      <circle class="well" cx="42.5" cy="13.5" r="4"/>
        <text class="small"
      x="46.5"
      y="27.5">B4</text>
      <circle class="well" cx="42.5" cy="22.5" r="4"/>
        <text class="small"
      x="46.5"
      y="36.5">C4</text>
      <circle class="well" cx="42.5" cy="31.5" r="4"/>
        <text class="small"
      x="46.5"
      y="45.5">D4</text>
      <circle class="well" cx="42.5" cy="40.5" r="4"/>
        <text class="small"
      x="46.5"
      y="54.5">E4</text>
      <circle class="well" cx="42.5" cy="49.5" r="4"/>
        <text class="small"
      x="46.5"
      y="63.5">F4</text>
      <circle class="well" cx="42.5" cy="58.5" r="4"/>
        <text class="small"
      x="46.5"
      y="72.5">G4</text>
      <circle class="well" cx="42.5" cy="67.5" r="4"/>
        <text class="small"
      x="46.5"
      y="81.5">H4</text>
      <circle class="well" cx="42.5" cy="76.5" r="4"/>
        <text class="big" x="51" y="8.5">5</text>
          <text class="small"
      x="55.5"
      y="18.5">A5</text>
      <circle class="well" cx="51.5" cy="13.5" r="4"/>
        <text class="small"
      x="55.5"
      y="27.5">B5</text>
      <circle class="well" cx="51.5" cy="22.5" r="4"/>
        <text class="small"
      x="55.5"
      y="36.5">C5</text>
      <circle class="well" cx="51.5" cy="31.5" r="4"/>
        <text class="small"
      x="55.5"
      y="45.5">D5</text>
      <circle class="well" cx="51.5" cy="40.5" r="4"/>
        <text class="small"
      x="55.5"
      y="54.5">E5</text>
      <circle class="well" cx="51.5" cy="49.5" r="4"/>
        <text class="small"
      x="55.5"
      y="63.5">F5</text>
      <circle class="well" cx="51.5" cy="58.5" r="4"/>
        <text class="small"
      x="55.5"
      y="72.5">G5</text>
      <circle class="well" cx="51.5" cy="67.5" r="4"/>
        <text class="small"
      x="55.5"
      y="81.5">H5</text>
      <circle class="well" cx="51.5" cy="76.5" r="4"/>
        <text class="big" x="60" y="8.5">6</text>
          <text class="small"
      x="64.5"
      y="18.5">A6</text>
      <circle class="well" cx="60.5" cy="13.5" r="4"/>
        <text class="small"
      x="64.5"
      y="27.5">B6</text>
      <circle class="well" cx="60.5" cy="22.5" r="4"/>
        <text class="small"
      x="64.5"
      y="36.5">C6</text>
      <circle class="well" cx="60.5" cy="31.5" r="4"/>
        <text class="small"
      x="64.5"
      y="45.5">D6</text>
      <circle class="well" cx="60.5" cy="40.5" r="4"/>
        <text class="small"
      x="64.5"
      y="54.5">E6</text>
      <circle class="well" cx="60.5" cy="49.5" r="4"/>
        <text class="small"
      x="64.5"
      y="63.5">F6</text>
      <circle class="well" cx="60.5" cy="58.5" r="4"/>
        <text class="small"
      x="64.5"
      y="72.5">G6</text>
      <circle class="well" cx="60.5" cy="67.5" r="4"/>
        <text class="small"
      x="64.5"
      y="81.5">H6</text>
      <circle class="well" cx="60.5" cy="76.5" r="4"/>
        <text class="big" x="69" y="8.5">7</text>
          <text class="small"
      x="73.5"
      y="18.5">A7</text>
      <circle class="well" cx="69.5" cy="13.5" r="4"/>
        <text class="small"
      x="73.5"
      y="27.5">B7</text>
      <circle class="well" cx="69.5" cy="22.5" r="4"/>
        <text class="small"
      x="73.5"
      y="36.5">C7</text>
      <circle class="well" cx="69.5" cy="31.5" r="4"/>
        <text class="small"
      x="73.5"
      y="45.5">D7</text>
      <circle class="well" cx="69.5" cy="40.5" r="4"/>
        <text class="small"
      x="73.5"
      y="54.5">E7</text>
      <circle class="well" cx="69.5" cy="49.5" r="4"/>
        <text class="small"
      x="73.5"
      y="63.5">F7</text>
      <circle class="well" cx="69.5" cy="58.5" r="4"/>
        <text class="small"
      x="73.5"
      y="72.5">G7</text>
      <circle class="well" cx="69.5" cy="67.5" r="4"/>
        <text class="small"
      x="73.5"
      y="81.5">H7</text>
      <circle class="well" cx="69.5" cy="76.5" r="4"/>
        <text class="big" x="78" y="8.5">8</text>
          <text class="small"
      x="82.5"
      y="18.5">A8</text>
      <circle class="well" cx="78.5" cy="13.5" r="4"/>
        <text class="small"
      x="82.5"
      y="27.5">B8</text>
      <circle class="well" cx="78.5" cy="22.5" r="4"/>
        <text class="small"
      x="82.5"
      y="36.5">C8</text>
      <circle class="well" cx="78.5" cy="31.5" r="4"/>
        <text class="small"
      x="82.5"
      y="45.5">D8</text>
      <circle class="well" cx="78.5" cy="40.5" r="4"/>
        <text class="small"
      x="82.5"
      y="54.5">E8</text>
      <circle class="well" cx="78.5" cy="49.5" r="4"/>
        <text class="small"
      x="82.5"
      y="63.5">F8</text>
      <circle class="well" cx="78.5" cy="58.5" r="4"/>
        <text class="small"
      x="82.5"
      y="72.5">G8</text>
      <circle class="well" cx="78.5" cy="67.5" r="4"/>
        <text class="small"
      x="82.5"
      y="81.5">H8</text>
      <circle class="well" cx="78.5" cy="76.5" r="4"/>
        <text class="big" x="87" y="8.5">9</text>
          <text class="small"
      x="91.5"
      y="18.5">A9</text>
      <circle class="well" cx="87.5" cy="13.5" r="4"/>
        <text class="small"
      x="91.5"
      y="27.5">B9</text>
      <circle class="well" cx="87.5" cy="22.5" r="4"/>
        <text class="small"
      x="91.5"
      y="36.5">C9</text>
      <circle class="well" cx="87.5" cy="31.5" r="4"/>
        <text class="small"
      x="91.5"
      y="45.5">D9</text>
      <circle class="well" cx="87.5" cy="40.5" r="4"/>
        <text class="small"
      x="91.5"
      y="54.5">E9</text>
      <circle class="well" cx="87.5" cy="49.5" r="4"/>
        <text class="small"
      x="91.5"
      y="63.5">F9</text>
      <circle class="well" cx="87.5" cy="58.5" r="4"/>
        <text class="small"
      x="91.5"
      y="72.5">G9</text>
      <circle class="well" cx="87.5" cy="67.5" r="4"/>
        <text class="small"
      x="91.5"
      y="81.5">H9</text>
      <circle class="well" cx="87.5" cy="76.5" r="4"/>
        <text class="big" x="96" y="8.5">10</text>
          <text class="small"
      x="100.5"
      y="18.5">A10</text>
      <circle class="well" cx="96.5" cy="13.5" r="4"/>
        <text class="small"
      x="100.5"
      y="27.5">B10</text>
      <circle class="well" cx="96.5" cy="22.5" r="4"/>
        <text class="small"
      x="100.5"
      y="36.5">C10</text>
      <circle class="well" cx="96.5" cy="31.5" r="4"/>
        <text class="small"
      x="100.5"
      y="45.5">D10</text>
      <circle class="well" cx="96.5" cy="40.5" r="4"/>
        <text class="small"
      x="100.5"
      y="54.5">E10</text>
      <circle class="well" cx="96.5" cy="49.5" r="4"/>
        <text class="small"
      x="100.5"
      y="63.5">F10</text>
      <circle class="well" cx="96.5" cy="58.5" r="4"/>
        <text class="small"
      x="100.5"
      y="72.5">G10</text>
      <circle class="well" cx="96.5" cy="67.5" r="4"/>
        <text class="small"
      x="100.5"
      y="81.5">H10</text>
      <circle class="well" cx="96.5" cy="76.5" r="4"/>
        <text class="big" x="105" y="8.5">11</text>
          <text class="small"
      x="109.5"
      y="18.5">A11</text>
      <circle class="well" cx="105.5" cy="13.5" r="4"/>
        <text class="small"
      x="109.5"
      y="27.5">B11</text>
      <circle class="well" cx="105.5" cy="22.5" r="4"/>
        <text class="small"
      x="109.5"
      y="36.5">C11</text>
      <circle class="well" cx="105.5" cy="31.5" r="4"/>
        <text class="small"
      x="109.5"
      y="45.5">D11</text>
      <circle class="well" cx="105.5" cy="40.5" r="4"/>
        <text class="small"
      x="109.5"
      y="54.5">E11</text>
      <circle class="well" cx="105.5" cy="49.5" r="4"/>
        <text class="small"
      x="109.5"
      y="63.5">F11</text>
      <circle class="well" cx="105.5" cy="58.5" r="4"/>
        <text class="small"
      x="109.5"
      y="72.5">G11</text>
      <circle class="well" cx="105.5" cy="67.5" r="4"/>
        <text class="small"
      x="109.5"
      y="81.5">H11</text>
      <circle class="well" cx="105.5" cy="76.5" r="4"/>
        <text class="big" x="114" y="8.5">12</text>
          <text class="small"
      x="118.5"
      y="18.5">A12</text>
      <circle class="well" cx="114.5" cy="13.5" r="4"/>
        <text class="small"
      x="118.5"
      y="27.5">B12</text>
      <circle class="well" cx="114.5" cy="22.5" r="4"/>
        <text class="small"
      x="118.5"
      y="36.5">C12</text>
      <circle class="well" cx="114.5" cy="31.5" r="4"/>
        <text class="small"
      x="118.5"
      y="45.5">D12</text>
      <circle class="well" cx="114.5" cy="40.5" r="4"/>
        <text class="small"
      x="118.5"
      y="54.5">E12</text>
      <circle class="well" cx="114.5" cy="49.5" r="4"/>
        <text class="small"
      x="118.5"
      y="63.5">F12</text>
      <circle class="well" cx="114.5" cy="58.5" r="4"/>
        <text class="small"
      x="118.5"
      y="72.5">G12</text>
      <circle class="well" cx="114.5" cy="67.5" r="4"/>
        <text class="small"
      x="118.5"
      y="81.5">H12</text>
      <circle class="well" cx="114.5" cy="76.5" r="4"/>
        </svg>