<?xml version="1.0" standalone="no"?><!DOCTYPE svg PUBLIC "-//W3C//DTD SVG 1.1//EN" "http://www.w3.org/Graphics/SVG/1.1/DTD/svg11.dtd"><svg t="1583500497269" class="icon" viewBox="0 0 1024 1024" version="1.1" xmlns="http://www.w3.org/2000/svg" p-id="2511" xmlns:xlink="http://www.w3.org/1999/xlink" width="64" height="64"><defs><style type="text/css"></style></defs><path d="M155.754367 65.230654c13.480013 0 27.318182 3.060709 40.642652 9.706059l651.16555 325.231269L847.562569 121.097032c0-30.847565 25.006534-55.842843 55.832609-55.842843 30.847565 0 55.842843 24.995277 55.842843 55.842843l0 781.794679c0 30.847565-24.995277 55.842843-55.842843 55.842843-30.825053 0-55.832609-24.995277-55.832609-55.842843L847.562569 623.819738 196.398042 949.051007c-13.32447 6.656607-27.16264 9.716292-40.642652 9.716292-47.723931 0-90.991364-38.319747-90.991364-90.980107L64.764026 156.210761C64.764026 103.539144 108.031459 65.230654 155.754367 65.230654z" p-id="2512" fill="#707070"></path></svg>