<svg xmlns="http://www.w3.org/2000/svg" viewBox="0 0 130 90">
  <style>
      .border{stroke: green;
        fill:  transparent;
        stroke-width: 1;}
      .well{stroke: green;
        fill: transparent;
        stroke-width: 0.5;}
      .small{fill:green;text-anchor:middle;
        font-size:2.5px;}
      .big{fill:green;text-anchor:middle;
        font-size:5px;}
  </style>
      <polyline class="border" points="1 87, 1 3, 125 3, 129 7, 129 87, 0.5 87"/>
  <text class="big" x="22.5" y="9">1</text>
          <text class="big" x="15" y="17">A</text>
          <text class="small"
      x="28"
      y="21">A1</text>
      <circle class="well" cx="23" cy="15" r="5"/>
        <text class="big" x="15" y="29">B</text>
          <text class="small"
      x="28"
      y="33">B1</text>
      <circle class="well" cx="23" cy="27" r="5"/>
        <text class="big" x="15" y="41">C</text>
          <text class="small"
      x="28"
      y="45">C1</text>
      <circle class="well" cx="23" cy="39" r="5"/>
        <text class="big" x="15" y="53">D</text>
          <text class="small"
      x="28"
      y="57">D1</text>
      <circle class="well" cx="23" cy="51" r="5"/>
        <text class="big" x="15" y="65">E</text>
          <text class="small"
      x="28"
      y="69">E1</text>
      <circle class="well" cx="23" cy="63" r="5"/>
        <text class="big" x="15" y="77">F</text>
          <text class="small"
      x="28"
      y="81">F1</text>
      <circle class="well" cx="23" cy="75" r="5"/>
        <text class="big" x="34.5" y="9">2</text>
          <text class="small"
      x="40"
      y="21">A2</text>
      <circle class="well" cx="35" cy="15" r="5"/>
        <text class="small"
      x="40"
      y="33">B2</text>
      <circle class="well" cx="35" cy="27" r="5"/>
        <text class="small"
      x="40"
      y="45">C2</text>
      <circle class="well" cx="35" cy="39" r="5"/>
        <text class="small"
      x="40"
      y="57">D2</text>
      <circle class="well" cx="35" cy="51" r="5"/>
        <text class="small"
      x="40"
      y="69">E2</text>
      <circle class="well" cx="35" cy="63" r="5"/>
        <text class="small"
      x="40"
      y="81">F2</text>
      <circle class="well" cx="35" cy="75" r="5"/>
        <text class="big" x="46.5" y="9">3</text>
          <text class="small"
      x="52"
      y="21">A3</text>
      <circle class="well" cx="47" cy="15" r="5"/>
        <text class="small"
      x="52"
      y="33">B3</text>
      <circle class="well" cx="47" cy="27" r="5"/>
        <text class="small"
      x="52"
      y="45">C3</text>
      <circle class="well" cx="47" cy="39" r="5"/>
        <text class="small"
      x="52"
      y="57">D3</text>
      <circle class="well" cx="47" cy="51" r="5"/>
        <text class="small"
      x="52"
      y="69">E3</text>
      <circle class="well" cx="47" cy="63" r="5"/>
        <text class="small"
      x="52"
      y="81">F3</text>
      <circle class="well" cx="47" cy="75" r="5"/>
        <text class="big" x="58.5" y="9">4</text>
          <text class="small"
      x="64"
      y="21">A4</text>
      <circle class="well" cx="59" cy="15" r="5"/>
        <text class="small"
      x="64"
      y="33">B4</text>
      <circle class="well" cx="59" cy="27" r="5"/>
        <text class="small"
      x="64"
      y="45">C4</text>
      <circle class="well" cx="59" cy="39" r="5"/>
        <text class="small"
      x="64"
      y="57">D4</text>
      <circle class="well" cx="59" cy="51" r="5"/>
        <text class="small"
      x="64"
      y="69">E4</text>
      <circle class="well" cx="59" cy="63" r="5"/>
        <text class="small"
      x="64"
      y="81">F4</text>
      <circle class="well" cx="59" cy="75" r="5"/>
        <text class="big" x="70.5" y="9">5</text>
          <text class="small"
      x="76"
      y="21">A5</text>
      <circle class="well" cx="71" cy="15" r="5"/>
        <text class="small"
      x="76"
      y="33">B5</text>
      <circle class="well" cx="71" cy="27" r="5"/>
        <text class="small"
      x="76"
      y="45">C5</text>
      <circle class="well" cx="71" cy="39" r="5"/>
        <text class="small"
      x="76"
      y="57">D5</text>
      <circle class="well" cx="71" cy="51" r="5"/>
        <text class="small"
      x="76"
      y="69">E5</text>
      <circle class="well" cx="71" cy="63" r="5"/>
        <text class="small"
      x="76"
      y="81">F5</text>
      <circle class="well" cx="71" cy="75" r="5"/>
        <text class="big" x="82.5" y="9">6</text>
          <text class="small"
      x="88"
      y="21">A6</text>
      <circle class="well" cx="83" cy="15" r="5"/>
        <text class="small"
      x="88"
      y="33">B6</text>
      <circle class="well" cx="83" cy="27" r="5"/>
        <text class="small"
      x="88"
      y="45">C6</text>
      <circle class="well" cx="83" cy="39" r="5"/>
        <text class="small"
      x="88"
      y="57">D6</text>
      <circle class="well" cx="83" cy="51" r="5"/>
        <text class="small"
      x="88"
      y="69">E6</text>
      <circle class="well" cx="83" cy="63" r="5"/>
        <text class="small"
      x="88"
      y="81">F6</text>
      <circle class="well" cx="83" cy="75" r="5"/>
        <text class="big" x="94.5" y="9">7</text>
          <text class="small"
      x="100"
      y="21">A7</text>
      <circle class="well" cx="95" cy="15" r="5"/>
        <text class="small"
      x="100"
      y="33">B7</text>
      <circle class="well" cx="95" cy="27" r="5"/>
        <text class="small"
      x="100"
      y="45">C7</text>
      <circle class="well" cx="95" cy="39" r="5"/>
        <text class="small"
      x="100"
      y="57">D7</text>
      <circle class="well" cx="95" cy="51" r="5"/>
        <text class="small"
      x="100"
      y="69">E7</text>
      <circle class="well" cx="95" cy="63" r="5"/>
        <text class="small"
      x="100"
      y="81">F7</text>
      <circle class="well" cx="95" cy="75" r="5"/>
        <text class="big" x="106.5" y="9">8</text>
          <text class="small"
      x="112"
      y="21">A8</text>
      <circle class="well" cx="107" cy="15" r="5"/>
        <text class="small"
      x="112"
      y="33">B8</text>
      <circle class="well" cx="107" cy="27" r="5"/>
        <text class="small"
      x="112"
      y="45">C8</text>
      <circle class="well" cx="107" cy="39" r="5"/>
        <text class="small"
      x="112"
      y="57">D8</text>
      <circle class="well" cx="107" cy="51" r="5"/>
        <text class="small"
      x="112"
      y="69">E8</text>
      <circle class="well" cx="107" cy="63" r="5"/>
        <text class="small"
      x="112"
      y="81">F8</text>
      <circle class="well" cx="107" cy="75" r="5"/>
        </svg>